# xmcd CD database file
#
# Track frame offsets:
#	150
#	8495
#	20092
#	43440
#	54092
#	69980
#	85525
#	97495
#	113275
#	125765
#	142432
#	153380
#	175165
#	184195
#	202117
#
# Disc length: 3257 seconds
#
# Revision: 2
# Processed by: cddbd v1.5.2PL0 Copyright (c) Steve Scherf et al.
# Submitted via: CDex 1.70beta2
#
DISCID=d20cb70f
DTITLE=Various Artist - Flyin' Traps
DYEAR=1997
DGENRE=Percussion
TTITLE0=Matt Cameron and Taz Bentley - Theme From Wrong Holy-O
TTITLE1=Michael Musburger - Noodles
TTITLE2=Steven Drozd - Headphones Theme From Seemingly Infinity
TTITLE3=Stephen Perkins - Monkey In Brazil
TTITLE4=Dan Peters Combo - Do You Remember Walter?
TTITLE5=Brian Reitzell - Snake And Mongoose
TTITLE6=J Mascis - Carl
TTITLE7=Alexis Fleisig - Don't Ruin Me Gorgeous
TTITLE8=Barret Martin - Barnburner
TTITLE9=Joey Waronker - Chorkle Is Dead
TTITLE10=Josh Freese - The Gay '90s
TTITLE11=Tim Alexander and Mike Bordin - Choked
TTITLE12=Mac McNeilly - Lime
TTITLE13=Chris Vrenna - The Steel Box
TTITLE14=Dale Crover - Vomit and Orange Juice
EXTD=YEAR: 1997
EXTT0=
EXTT1=
EXTT2=
EXTT3=
EXTT4=
EXTT5=
EXTT6=
EXTT7=
EXTT8=
EXTT9=
EXTT10=
EXTT11=
EXTT12=
EXTT13=
EXTT14=
PLAYORDER=
